<?xml version="1.0" encoding="utf-8"?>
<!-- Generator: Adobe Illustrator 21.1.0, SVG Export Plug-In . SVG Version: 6.00 Build 0)  -->
<svg version="1.1"
	 id="Слой_1" xmlns:cc="http://creativecommons.org/ns#" xmlns:dc="http://purl.org/dc/elements/1.1/" xmlns:inkscape="http://www.inkscape.org/namespaces/inkscape" xmlns:rdf="http://www.w3.org/1999/02/22-rdf-syntax-ns#" xmlns:sodipodi="http://sodipodi.sourceforge.net/DTD/sodipodi-0.dtd" xmlns:svg="http://www.w3.org/2000/svg"
	 xmlns="http://www.w3.org/2000/svg" xmlns:xlink="http://www.w3.org/1999/xlink" x="0px" y="0px" viewBox="0 0 160 104"
	 style="enable-background:new 0 0 160 104;" xml:space="preserve">
<style type="text/css">
	.st0{fill:#FFFFFF;}
</style>
<g transform="translate(0,-952.36218)">
	<path class="st0" d="M12,952.4c-2.4,0-4.5,0.7-6.4,1.9l68.5,59.8c3.6,3.2,8,3.2,11.6,0l68.6-59.9c-1.8-1.2-4-1.8-6.4-1.8H12z
		 M0.7,960.5C0.3,961.7,0,963,0,964.4v80c0,6.6,5.4,12,12,12h136c6.6,0,12-5.4,12-12v-80c0-1.4-0.3-2.7-0.7-3.9L91,1020.1
		c-6.4,5.6-15.8,5.5-22.1-0.1L0.7,960.5L0.7,960.5z"/>
</g>
</svg>
